<svg width="930" height="910" viewBox="0 0 930 910" fill="none" xmlns="http://www.w3.org/2000/svg">
<path d="M172.334 74L161.334 85.5H26L19 92V196.5L8.5 207.5V265.5M9 278L8.5 334.5L18.5 345V876L27 884.5H46.3345L63.3345 901.5H94.8345L106.334 890M88.8345 895L99.3345 884.5H226.334L243.334 901.5H640.834L657.834 884.5H778.334L788.834 895M771.834 891.5L781.834 901.5H814.334L831.334 884.5H852.5L860 876.5V175L872 163.5H920.5L928 156V129.5M928 118.5V92.5L920.5 85.5H715.834L705.334 74.5M830.334 77L816.334 62.5H703.834L650.834 10.5H224.834L172.334 62.5H60.3345L45.8345 77.5" stroke="#006EB7"/>
<path d="M229.334 6H294.334V5H229.334V6Z" fill="#006EB7"/>
<path d="M582.334 6H647.334V5H582.334V6Z" fill="#006EB7"/>
<path d="M0 337.743L10 346.743L10.669 346L0.668964 337L0 337.743Z" fill="#006EB7"/>
<path d="M0 344.486L10 353.486L10.669 352.743L0.668964 343.743L0 344.486Z" fill="#006EB7"/>
<path d="M10 360.23L0 351.23L0.668964 350.487L10.669 359.487L10 360.23Z" fill="#006EB7"/>
<path d="M0 357.973L10 366.973L10.669 366.23L0.668964 357.23L0 357.973Z" fill="#006EB7"/>
<path d="M10 373.716L0 364.716L0.668964 363.973L10.669 372.973L10 373.716Z" fill="#006EB7"/>
<path d="M0 371.46L10 380.46L10.669 379.716L0.668964 370.716L0 371.46Z" fill="#006EB7"/>
<path d="M10 387.203L0 378.203L0.668964 377.46L10.669 386.46L10 387.203Z" fill="#006EB7"/>
<path d="M0 384.946L10 393.946L10.669 393.203L0.668964 384.203L0 384.946Z" fill="#006EB7"/>
<path d="M877 166.743L867 175.743L866.331 175L876.331 166L877 166.743Z" fill="#006EB7"/>
<path d="M877 173.486L867 182.486L866.331 181.743L876.331 172.743L877 173.486Z" fill="#006EB7"/>
<path d="M867 189.23L877 180.23L876.331 179.487L866.331 188.487L867 189.23Z" fill="#006EB7"/>
<path d="M877 186.973L867 195.973L866.331 195.23L876.331 186.23L877 186.973Z" fill="#006EB7"/>
<path d="M867 202.716L877 193.716L876.331 192.973L866.331 201.973L867 202.716Z" fill="#006EB7"/>
<path d="M877 200.46L867 209.46L866.331 208.716L876.331 199.716L877 200.46Z" fill="#006EB7"/>
<path d="M867 216.203L877 207.203L876.331 206.46L866.331 215.46L867 216.203Z" fill="#006EB7"/>
<path d="M877 213.946L867 222.946L866.331 222.203L876.331 213.203L877 213.946Z" fill="#006EB7"/>
<path d="M209.334 9H219.334L170.334 58H160.334L209.334 9Z" fill="#00A0E9"/>
<path d="M110.334 68H116.334L104.334 80H98.3345L110.334 68Z" fill="#00A0E9"/>
<path d="M126.334 68H120.334L108.334 80H114.334L126.334 68Z" fill="#00A0E9"/>
<path d="M136.334 68H130.334L118.334 80H124.334L136.334 68Z" fill="#00A0E9"/>
<path d="M146.334 68H140.334L128.334 80H134.334L146.334 68Z" fill="#00A0E9"/>
<path d="M150.334 68H160.334L148.334 80H138.334L150.334 68Z" fill="#00A0E9"/>
<path d="M668.334 9H658.334L707.334 58H717.334L668.334 9Z" fill="#00A0E9"/>
<path d="M767.334 68H761.334L773.334 80H779.334L767.334 68Z" fill="#00A0E9"/>
<path d="M751.334 68H757.334L769.334 80H763.334L751.334 68Z" fill="#00A0E9"/>
<path d="M741.334 68H747.334L759.334 80H753.334L741.334 68Z" fill="#00A0E9"/>
<path d="M731.334 68H737.334L749.334 80H743.334L731.334 68Z" fill="#00A0E9"/>
<path d="M727.334 68H717.334L729.334 80H739.334L727.334 68Z" fill="#00A0E9"/>
<path d="M224.334 888L238.334 902H228.334L214.334 888H224.334Z" fill="#00A0E9"/>
<path d="M660.334 888H670.334L656.334 902H646.334L660.334 888Z" fill="#00A0E9"/>
<path d="M218.334 0H227.334L221.334 6H212.334L218.334 0Z" fill="#FF8000"/>
<path d="M175.334 79H191.334L184.334 86H168.334L175.334 79Z" fill="#FF8000"/>
<path d="M656.334 0H647.334L653.334 6H662.334L656.334 0Z" fill="#FF8000"/>
<path d="M699.334 79H683.334L690.334 86H706.334L699.334 79Z" fill="#FF8000"/>
<path d="M644.334 905L639.334 910H649.334L654.334 905H644.334Z" fill="#FF8000"/>
<path d="M246.334 910L241.334 905H231.334L236.334 910H246.334Z" fill="#FF8000"/>
<path fill-rule="evenodd" clip-rule="evenodd" d="M246.334 906H374.334V905H246.334V906ZM508.334 906H636.334V905H508.334V906Z" fill="#006EB7"/>
<path d="M172.334 76C173.439 76 174.334 75.1046 174.334 74C174.334 72.8954 173.439 72 172.334 72C171.23 72 170.334 72.8954 170.334 74C170.334 75.1046 171.23 76 172.334 76Z" fill="#006EB7"/>
<path d="M45.3345 80C46.439 80 47.3345 79.1046 47.3345 78C47.3345 76.8954 46.439 76 45.3345 76C44.23 76 43.3345 76.8954 43.3345 78C43.3345 79.1046 44.23 80 45.3345 80Z" fill="#006EB7"/>
<path d="M705.334 76C706.439 76 707.334 75.1046 707.334 74C707.334 72.8954 706.439 72 705.334 72C704.23 72 703.334 72.8954 703.334 74C703.334 75.1046 704.23 76 705.334 76Z" fill="#006EB7"/>
<path d="M831.334 80C832.439 80 833.334 79.1046 833.334 78C833.334 76.8954 832.439 76 831.334 76C830.23 76 829.334 76.8954 829.334 78C829.334 79.1046 830.23 80 831.334 80Z" fill="#006EB7"/>
<path d="M928 121C929.104 121 930 120.105 930 119C930 117.895 929.104 117 928 117C926.896 117 926 117.895 926 119C926 120.105 926.896 121 928 121Z" fill="#006EB7"/>
<path d="M928 132C929.104 132 930 131.105 930 130C930 128.895 929.104 128 928 128C926.896 128 926 128.895 926 130C926 131.105 926.896 132 928 132Z" fill="#006EB7"/>
<path d="M813.334 893C814.439 893 815.334 892.105 815.334 891C815.334 889.895 814.439 889 813.334 889C812.23 889 811.334 889.895 811.334 891C811.334 892.105 812.23 893 813.334 893Z" fill="#006EB7"/>
<path d="M62.3345 892C63.439 892 64.3345 891.105 64.3345 890C64.3345 888.895 63.439 888 62.3345 888C61.23 888 60.3345 888.895 60.3345 890C60.3345 891.105 61.23 892 62.3345 892Z" fill="#006EB7"/>
<path d="M44.3345 898C45.439 898 46.3345 897.105 46.3345 896C46.3345 894.895 45.439 894 44.3345 894C43.23 894 42.3345 894.895 42.3345 896C42.3345 897.105 43.23 898 44.3345 898Z" fill="#006EB7"/>
<path d="M832.334 898C833.439 898 834.334 897.105 834.334 896C834.334 894.895 833.439 894 832.334 894C831.23 894 830.334 894.895 830.334 896C830.334 897.105 831.23 898 832.334 898Z" fill="#006EB7"/>
<path d="M10.5 266.5C10.5 267.328 9.82843 268 9 268C8.17157 268 7.5 267.328 7.5 266.5C7.5 265.672 8.17157 265 9 265C9.82843 265 10.5 265.672 10.5 266.5Z" fill="#006EB7"/>
<path d="M9 279C9.82843 279 10.5 278.328 10.5 277.5C10.5 276.672 9.82843 276 9 276C8.17157 276 7.5 276.672 7.5 277.5C7.5 278.328 8.17157 279 9 279Z" fill="#006EB7"/>
<path d="M909.793 95.5L919.5 105.207V148.793L915.793 152.5H866.207L862.5 148.793V99.207L866.207 95.5H909.793Z" fill="#002751" stroke="#004EA2"/>
<path fill-rule="evenodd" clip-rule="evenodd" d="M890.47 123.693L882.728 132.086L884.199 133.442L891.901 125.091L900.028 133.029L901.426 131.598L893.257 123.62L900.999 115.228L899.528 113.872L891.826 122.222L883.699 114.285L882.301 115.715L890.47 123.693Z" fill="#00A0E9"/>
</svg>
