<svg width="64" height="48" viewBox="0 0 64 48" fill="none" xmlns="http://www.w3.org/2000/svg">
<path d="M53.793 0.5L63.5 10.207V43.793L59.793 47.5H4.20703L0.5 43.793V4.20703L4.20703 0.5H53.793Z" fill="#0083CF" stroke="#0097DD"/>
<path d="M22.976 24.864C22.6987 24.96 22.3733 25.072 22 25.2C21.6267 25.3173 21.2373 25.44 20.832 25.568V29.632C20.832 30.016 20.8 30.32 20.736 30.544C20.6827 30.768 20.576 30.944 20.416 31.072C20.2667 31.2 20.0587 31.2907 19.792 31.344C19.536 31.408 19.2053 31.4667 18.8 31.52L18.048 31.616L17.52 29.968L18.304 29.872C18.5067 29.8507 18.6667 29.8293 18.784 29.808C18.912 29.776 19.008 29.7333 19.072 29.68C19.136 29.6267 19.1787 29.552 19.2 29.456C19.2213 29.36 19.232 29.2267 19.232 29.056V26.08C18.784 26.2293 18.3573 26.3627 17.952 26.48C17.5573 26.5973 17.2213 26.6933 16.944 26.768L16.624 25.152C16.9653 25.0667 17.36 24.9653 17.808 24.848C18.256 24.7307 18.7307 24.5973 19.232 24.448V21.488H17.104V19.936H19.232V17.104L20.832 17.168V19.936H22.864V21.488H20.832V23.968C21.5573 23.744 22.2133 23.5307 22.8 23.328L22.976 24.864ZM31.024 19.76H28.304V29.344C28.304 29.7387 28.2667 30.0587 28.192 30.304C28.1173 30.56 27.9893 30.7627 27.808 30.912C27.6373 31.072 27.408 31.1893 27.12 31.264C26.832 31.3493 26.4693 31.408 26.032 31.44L25.024 31.52L24.528 29.872L25.568 29.776C25.792 29.7547 25.9733 29.7333 26.112 29.712C26.2613 29.68 26.3733 29.6373 26.448 29.584C26.5333 29.52 26.592 29.44 26.624 29.344C26.656 29.2373 26.672 29.0987 26.672 28.928V19.76H23.024V18.192H31.024V19.76ZM46.678 25.264H43.27V31.488H41.654V25.264H37.718C37.6647 26.032 37.5687 26.7093 37.43 27.296C37.2913 27.872 37.0833 28.416 36.806 28.928C36.5393 29.4293 36.1927 29.92 35.766 30.4C35.35 30.88 34.8327 31.392 34.214 31.936L32.998 30.72C33.5527 30.2507 34.0167 29.8187 34.39 29.424C34.774 29.0187 35.0833 28.608 35.318 28.192C35.5527 27.776 35.7287 27.3387 35.846 26.88C35.9633 26.4107 36.0433 25.872 36.086 25.264H32.502V23.696H36.134V23.568V19.648H33.318V18.08H45.846V19.648H43.27V23.696H46.678V25.264ZM41.654 23.696V19.648H37.766V23.408V23.696H41.654Z" fill="white"/>
</svg>
