<svg width="164" height="36" viewBox="0 0 164 36" fill="none" xmlns="http://www.w3.org/2000/svg">
<rect width="164" height="36" fill="#182D62" fill-opacity="0.5"/>
<path d="M6 0H0V36H6V28.5L2 25V11L6 7.5V0Z" fill="#00539F"/>
<path d="M4 11.5L6 10V26L4 24.5V11.5Z" fill="#00A0E9"/>
<mask id="path-3-inside-1_901_38153" fill="white">
<path d="M6 0H158V36H6V0Z"/>
</mask>
<path d="M6 0H158V36H6V0Z" fill="#182D62" fill-opacity="0.5"/>
<path d="M6 1H158V-1H6V1ZM158 35H6V37H158V35Z" fill="#193E88" mask="url(#path-3-inside-1_901_38153)"/>
<path d="M158 0H164V36H158V28.5L162 25V11L158 7.5V0Z" fill="#00539F"/>
<path d="M160 11.5L158 10V26L160 24.5V11.5Z" fill="#00A0E9"/>
</svg>
