<svg width="192" height="58" viewBox="0 0 192 58" fill="none" xmlns="http://www.w3.org/2000/svg">
<path d="M14 1L1 14V52L6 57H179L191 45V9L183 1H14Z" fill="url(#paint0_radial_524_68389)" stroke="url(#paint1_linear_524_68389)" stroke-opacity="0.5"/>
<path d="M70 17L69.52 17.37C67.3134 19.1949 64.5708 20.2484 61.71 20.37H61V31.44C61 34.84 63.83 37.91 69.67 40.85L70 41L70.31 40.86C71.3396 40.3952 72.3413 39.871 73.31 39.29C72.4533 39.1523 71.6374 38.828 70.92 38.34L70.02 38.78C65.36 36.35 63.02 33.88 63.02 31.44V22.31C65.5274 21.9836 67.9132 21.0347 69.96 19.55C72.0609 20.9873 74.4744 21.9027 77 22.22V27.9C77.5851 28.1798 78.1218 28.5511 78.59 29C78.7346 29.146 78.8715 29.2996 79 29.46V20.46L78.33 20.38C74.82 20 72.18 19 70.49 17.41L70 17Z" fill="white"/>
<path d="M74.3099 30.27C74.8855 30.2685 75.45 30.4278 75.9399 30.73C76.1372 30.8502 76.3186 30.9946 76.4799 31.16C76.7657 31.447 76.9932 31.7866 77.1499 32.16C77.1822 32.2302 77.2057 32.304 77.2199 32.38V32.45V32.53C77.2244 32.5565 77.2244 32.5835 77.2199 32.61V32.7V32.79C77.2443 32.9457 77.2443 33.1043 77.2199 33.26V33.33C77.225 33.3665 77.225 33.4035 77.2199 33.44V33.62V33.7C77.2 33.8592 77.1665 34.0164 77.1199 34.17V34.29V34.35L77.0599 34.49C76.9928 34.668 76.902 34.8362 76.7899 34.99L76.4499 35.47L76.0799 35.75C75.8441 35.926 75.5805 36.0612 75.2999 36.15H75.2499L74.9599 36.23L74.6799 36.28H74.5699H74.3099C73.8208 36.3039 73.3333 36.2078 72.8899 36C72.616 35.8606 72.3662 35.6783 72.1499 35.46C71.8596 35.1801 71.6286 34.8446 71.4709 34.4735C71.3131 34.1024 71.2318 33.7032 71.2318 33.3C71.2318 32.8967 71.3131 32.4976 71.4709 32.1265C71.6286 31.7553 71.8596 31.4198 72.1499 31.14C72.4306 30.8589 72.7643 30.6364 73.1317 30.4854C73.499 30.3343 73.8927 30.2577 74.2899 30.26M74.2899 28.26C73.2914 28.2603 72.3154 28.5567 71.4852 29.1116C70.6551 29.6666 70.0081 30.4551 69.626 31.3777C69.2439 32.3002 69.1439 33.3153 69.3386 34.2947C69.5333 35.2741 70.014 36.1737 70.7199 36.88C71.0716 37.2368 71.4764 37.5371 71.9199 37.77C72.649 38.1595 73.4633 38.3622 74.2899 38.36H74.6999H74.8299C75.0114 38.3397 75.1917 38.3097 75.3699 38.27C75.5461 38.2306 75.7198 38.1805 75.8899 38.12C76.3989 37.9654 76.8763 37.7216 77.2999 37.4L80.4899 40.59L81.6499 39.44L78.4499 36.2C78.6532 35.9147 78.8211 35.6057 78.9499 35.28C78.9843 35.2017 79.0143 35.1216 79.0399 35.04C79.0743 34.9617 79.1043 34.8816 79.1299 34.8C79.209 34.5244 79.2691 34.2437 79.3099 33.96C79.3153 33.8534 79.3153 33.7466 79.3099 33.64C79.3099 33.54 79.3099 33.44 79.3099 33.33C79.323 32.9942 79.2928 32.6581 79.2199 32.33C79.1987 32.1701 79.1618 32.0127 79.1099 31.86C79.0656 31.6971 79.0122 31.5369 78.9499 31.38C78.692 30.7564 78.315 30.1892 77.8399 29.71C77.5869 29.4431 77.3052 29.205 76.9999 29C76.193 28.4966 75.261 28.2298 74.3099 28.23L74.2899 28.26Z" fill="white"/>
<path d="M102.02 34.38V38.02H100.6V34.64C100.027 34.7467 99.4333 34.8533 98.82 34.96C98.22 35.0667 97.6267 35.1667 97.04 35.26C96.4533 35.3533 95.8933 35.44 95.36 35.52C94.84 35.5867 94.3733 35.6467 93.96 35.7L93.66 34.24C93.9667 34.2133 94.3 34.18 94.66 34.14C95.02 34.1 95.3933 34.0467 95.78 33.98V22.28H94.52V20.86H103.32V22.28H102.02V32.9C102.367 32.8333 102.687 32.7733 102.98 32.72C103.273 32.6533 103.54 32.5867 103.78 32.52L103.8 33.28L103.84 34.02L102.02 34.38ZM107.98 32.12C108.5 32.88 109.1 33.6133 109.78 34.32C110.473 35.0133 111.26 35.72 112.14 36.44L111.1 37.6C110.26 36.8933 109.507 36.2067 108.84 35.54C108.187 34.8733 107.607 34.1867 107.1 33.48C106.62 34.1733 106.06 34.8533 105.42 35.52C104.793 36.1867 104.06 36.88 103.22 37.6L102.18 36.52C103.087 35.7867 103.873 35.0733 104.54 34.38C105.207 33.6733 105.787 32.94 106.28 32.18C105.947 31.62 105.653 31.0333 105.4 30.42C105.147 29.7933 104.92 29.1333 104.72 28.44C104.52 27.7467 104.347 27.0133 104.2 26.24C104.067 25.4533 103.947 24.6133 103.84 23.72L105.18 23.52C105.327 24.9867 105.56 26.3 105.88 27.46C106.2 28.62 106.613 29.7 107.12 30.7C107.627 29.66 108.033 28.5467 108.34 27.36C108.66 26.16 108.94 24.7933 109.18 23.26H103.6V21.78H110.62V23.26C110.473 24.1933 110.313 25.0667 110.14 25.88C109.98 26.6933 109.793 27.46 109.58 28.18C109.38 28.9 109.147 29.5867 108.88 30.24C108.613 30.8933 108.313 31.52 107.98 32.12ZM97.2 22.28V25.12H100.6V22.28H97.2ZM97.2 29.22H100.6V26.46H97.2V29.22ZM97.2 33.76C97.76 33.68 98.3267 33.5933 98.9 33.5C99.4733 33.3933 100.04 33.2867 100.6 33.18V30.56H97.2V33.76ZM125.648 25.46H130.008V35.5C130.008 35.9267 129.974 36.2733 129.908 36.54C129.841 36.8067 129.721 37.0133 129.548 37.16C129.388 37.32 129.154 37.4333 128.848 37.5C128.554 37.58 128.174 37.64 127.708 37.68L126.328 37.8L125.848 36.36L127.288 36.22C127.581 36.1933 127.814 36.16 127.988 36.12C128.161 36.08 128.288 36.02 128.368 35.94C128.461 35.86 128.514 35.7467 128.528 35.6C128.554 35.4533 128.568 35.26 128.568 35.02V33.68H121.288V37.78H119.848V25.46H124.208V19.84L125.648 19.9V25.46ZM115.408 20.52C115.661 20.68 115.941 20.8667 116.248 21.08C116.568 21.2933 116.888 21.52 117.208 21.76C117.528 22 117.834 22.24 118.128 22.48C118.434 22.72 118.688 22.9333 118.888 23.12L118.068 24.5C117.841 24.2733 117.574 24.0267 117.268 23.76C116.974 23.4933 116.668 23.2333 116.348 22.98C116.028 22.7267 115.714 22.4867 115.408 22.26C115.101 22.0333 114.828 21.8467 114.588 21.7L115.408 20.52ZM122.028 24.82C121.841 24.5533 121.628 24.2667 121.388 23.96C121.148 23.64 120.901 23.3333 120.648 23.04C120.394 22.7333 120.141 22.4467 119.888 22.18C119.648 21.9 119.421 21.66 119.208 21.46L120.168 20.54C120.368 20.7267 120.594 20.96 120.848 21.24C121.114 21.52 121.381 21.8133 121.648 22.12C121.928 22.4267 122.188 22.7333 122.428 23.04C122.681 23.3333 122.888 23.5933 123.048 23.82L122.028 24.82ZM130.628 21.54C130.441 21.78 130.228 22.0533 129.988 22.36C129.761 22.6533 129.514 22.9533 129.248 23.26C128.994 23.5533 128.734 23.84 128.468 24.12C128.214 24.4 127.974 24.6533 127.748 24.88L126.708 23.96C126.934 23.7467 127.174 23.5067 127.428 23.24C127.694 22.96 127.954 22.6733 128.208 22.38C128.461 22.0867 128.708 21.7933 128.948 21.5C129.188 21.1933 129.401 20.9 129.588 20.62L130.628 21.54ZM117.168 29.02C116.968 28.7667 116.714 28.5 116.408 28.22C116.101 27.9267 115.781 27.6467 115.448 27.38C115.114 27.1 114.781 26.8467 114.448 26.62C114.128 26.38 113.841 26.18 113.588 26.02L114.408 24.82C114.661 24.9667 114.948 25.1533 115.268 25.38C115.601 25.6067 115.934 25.8533 116.268 26.12C116.601 26.3733 116.921 26.6267 117.228 26.88C117.548 27.1333 117.814 27.36 118.028 27.56L117.168 29.02ZM128.568 26.84H121.288V28.9H128.568V26.84ZM128.568 32.36V30.24H121.288V32.36H128.568ZM118.088 30.9C117.981 31.3667 117.834 31.9133 117.648 32.54C117.461 33.1533 117.261 33.7867 117.048 34.44C116.848 35.08 116.634 35.6933 116.408 36.28C116.194 36.88 115.994 37.3867 115.808 37.8L114.328 37.34C114.514 36.94 114.721 36.44 114.948 35.84C115.188 35.24 115.414 34.6133 115.627 33.96C115.841 33.3067 116.034 32.6733 116.208 32.06C116.394 31.4333 116.534 30.8867 116.628 30.42L118.088 30.9Z" fill="white"/>
<defs>
<radialGradient id="paint0_radial_524_68389" cx="0" cy="0" r="1" gradientUnits="userSpaceOnUse" gradientTransform="translate(90.5 -0.499997) rotate(86.5167) scale(57.6064 195.45)">
<stop stop-color="#054B8B"/>
<stop offset="0.277074" stop-color="#053E81"/>
<stop offset="1" stop-color="#001F4E"/>
</radialGradient>
<linearGradient id="paint1_linear_524_68389" x1="96" y1="0.836129" x2="96" y2="57" gradientUnits="userSpaceOnUse">
<stop stop-color="#119CE6"/>
<stop offset="0.453125" stop-color="#004EB8"/>
<stop offset="0.776042" stop-color="#02449E"/>
<stop offset="1" stop-color="#024EB7"/>
</linearGradient>
</defs>
</svg>
