<svg width="312" height="56" viewBox="0 0 312 56" fill="none" xmlns="http://www.w3.org/2000/svg">
<path d="M13 0H17V56H5L0 51.5V13L13 0Z" fill="url(#paint0_radial_923_21452)"/>
<path fill-rule="evenodd" clip-rule="evenodd" d="M13 0H17V1H13.4142L1 13.4142V51.0858L5.41421 55H17V56H5L0 51.5V13L13 0Z" fill="url(#paint1_linear_923_21452)" fill-opacity="0.5"/>
<mask id="path-3-inside-1_923_21452" fill="white">
<path d="M17 0H295V56H17V0Z"/>
</mask>
<path d="M17 0H295V56H17V0Z" fill="url(#paint2_radial_923_21452)"/>
<path d="M17 1H295V-1H17V1ZM295 55H17V57H295V55Z" fill="url(#paint3_linear_923_21452)" mask="url(#path-3-inside-1_923_21452)"/>
<path fill-rule="evenodd" clip-rule="evenodd" d="M104.5 28.5C104.5 27.9477 104.948 27.5 105.5 27.5H111.5C112.052 27.5 112.5 27.9477 112.5 28.5C112.5 29.0523 112.052 29.5 111.5 29.5H105.5C104.948 29.5 104.5 29.0523 104.5 28.5Z" fill="#C0CCDB"/>
<path fill-rule="evenodd" clip-rule="evenodd" d="M107.793 24.7929C108.183 24.4024 108.817 24.4024 109.207 24.7929L112.207 27.7929C112.598 28.1834 112.598 28.8166 112.207 29.2071L109.207 32.2071C108.817 32.5976 108.183 32.5976 107.793 32.2071C107.402 31.8166 107.402 31.1834 107.793 30.7929L110.086 28.5L107.793 26.2071C107.402 25.8166 107.402 25.1834 107.793 24.7929Z" fill="#C0CCDB"/>
<path fill-rule="evenodd" clip-rule="evenodd" d="M101 18C101.552 18 102 18.4477 102 19V29C102 30.9817 101.101 32.8911 99.8765 34.43C98.6485 35.9732 97.0168 37.2424 95.3849 37.923C94.8752 38.1355 94.2896 37.8946 94.077 37.3849C93.8645 36.8752 94.1054 36.2896 94.6151 36.077C95.9006 35.541 97.2689 34.495 98.3115 33.1847C99.3575 31.8702 100 30.3878 100 29V19C100 18.4477 100.448 18 101 18Z" fill="#C0CCDB"/>
<path fill-rule="evenodd" clip-rule="evenodd" d="M92.5 20.5C92.5 19.1193 93.6193 18 95 18H110C111.381 18 112.5 19.1193 112.5 20.5V23C112.5 23.5523 112.052 24 111.5 24C110.948 24 110.5 23.5523 110.5 23V20.5C110.5 20.2238 110.276 20 110 20H95C94.7239 20 94.5 20.2239 94.5 20.5V35.5C94.5 35.7762 94.7238 36 95 36H110C110.276 36 110.5 35.7762 110.5 35.5V33.75C110.5 33.1977 110.948 32.75 111.5 32.75C112.052 32.75 112.5 33.1977 112.5 33.75V35.5C112.5 36.8807 111.381 38 110 38H95C93.6193 38 92.5 36.8807 92.5 35.5V20.5Z" fill="#C0CCDB"/>
<path d="M130.62 22.66C129.98 24.06 129.227 25.36 128.36 26.56V36.98H126.46V28.9C126.087 29.3 125.7 29.7 125.3 30.1C124.9 30.5 124.48 30.9 124.04 31.3L123.12 29.22C124.133 28.3267 125.067 27.34 125.92 26.26C126.787 25.1667 127.553 23.9667 128.22 22.66H123.96V20.82H129.06C129.207 20.4867 129.34 20.1467 129.46 19.8C129.58 19.4533 129.693 19.1 129.8 18.74L131.96 19.02C131.867 19.3267 131.773 19.6333 131.68 19.94C131.587 20.2333 131.487 20.5267 131.38 20.82H140.92V22.66H130.62ZM141.18 31.36H136.26V34.48C136.26 34.9467 136.227 35.3267 136.16 35.62C136.093 35.9267 135.96 36.1733 135.76 36.36C135.573 36.5467 135.313 36.6867 134.98 36.78C134.647 36.8733 134.213 36.9467 133.68 37L132.44 37.12L131.86 35.22L133.04 35.12C133.573 35.0667 133.927 34.96 134.1 34.8C134.273 34.64 134.36 34.3667 134.36 33.98V31.36H129.18V29.56H134.36V28.24L137.16 26.38H130.52V24.6H140.34V26.44L136.26 29.14V29.56H141.18V31.36ZM149.048 19.42C148.808 20.14 148.554 20.8267 148.288 21.48C148.034 22.1333 147.761 22.7733 147.467 23.4V36.84H145.468V27.1C145.201 27.5267 144.928 27.9467 144.648 28.36C144.368 28.76 144.081 29.1533 143.788 29.54L142.548 27.76C143.374 26.5467 144.181 25.1867 144.968 23.68C145.768 22.1733 146.421 20.58 146.928 18.9L149.048 19.42ZM153.228 23.6C153.214 23.9867 153.201 24.3933 153.188 24.82C153.174 25.2467 153.161 25.5867 153.148 25.84C153.148 25.8933 153.148 25.9467 153.148 26C153.148 26.0533 153.141 26.1067 153.128 26.16H159.328C159.328 26.2533 159.314 26.48 159.288 26.84C159.274 27.2 159.254 27.6333 159.228 28.14C159.201 28.6467 159.174 29.1933 159.148 29.78C159.121 30.3533 159.094 30.9067 159.068 31.44C159.041 31.96 159.014 32.4333 158.988 32.86C158.961 33.2733 158.941 33.5667 158.928 33.74C158.888 34.3267 158.808 34.7933 158.688 35.14C158.581 35.4867 158.408 35.7533 158.168 35.94C157.928 36.14 157.614 36.28 157.228 36.36C156.841 36.4533 156.354 36.5267 155.768 36.58L154.508 36.7L153.888 34.64L155.008 34.52C155.368 34.48 155.661 34.44 155.888 34.4C156.114 34.3467 156.294 34.2733 156.428 34.18C156.574 34.0733 156.674 33.9333 156.728 33.76C156.794 33.5867 156.848 33.3533 156.888 33.06C156.901 32.9 156.928 32.5933 156.968 32.14C157.008 31.6733 157.041 31.18 157.068 30.66C157.094 30.1267 157.114 29.6267 157.128 29.16C157.154 28.6933 157.168 28.38 157.168 28.22H153.008C152.928 29.2467 152.801 30.1667 152.628 30.98C152.454 31.7933 152.214 32.5533 151.908 33.26C151.614 33.9667 151.241 34.64 150.788 35.28C150.348 35.92 149.801 36.58 149.148 37.26L147.488 35.74C147.994 35.2333 148.428 34.7667 148.788 34.34C149.148 33.9 149.454 33.46 149.708 33.02C149.961 32.5667 150.168 32.1 150.328 31.62C150.488 31.14 150.614 30.6067 150.708 30.02C150.814 29.4333 150.894 28.78 150.948 28.06C151.014 27.34 151.074 26.52 151.128 25.6C151.128 25.5467 151.128 25.4533 151.128 25.32C151.141 25.1733 151.148 25.0067 151.148 24.82C151.161 24.6333 151.168 24.4333 151.168 24.22C151.181 24.0067 151.194 23.8 151.208 23.6H148.628V21.54H153.888C153.781 21.1267 153.661 20.7133 153.528 20.3C153.408 19.8867 153.301 19.5533 153.207 19.3L155.268 19C155.374 19.28 155.501 19.66 155.648 20.14C155.794 20.6067 155.934 21.0733 156.068 21.54H160.948V23.6H153.228ZM180.575 33.52H174.235C174.648 33.64 175.115 33.7867 175.635 33.96C176.168 34.12 176.695 34.2933 177.215 34.48C177.735 34.6667 178.228 34.8533 178.695 35.04C179.175 35.24 179.575 35.42 179.895 35.58L179.275 37.3C178.848 37.1 178.375 36.8867 177.855 36.66C177.335 36.4333 176.802 36.2133 176.255 36C175.708 35.8 175.162 35.6067 174.615 35.42C174.082 35.2467 173.588 35.1 173.135 34.98L173.715 33.52H169.555L170.215 34.84C169.802 35.0533 169.342 35.2733 168.835 35.5C168.342 35.7267 167.822 35.9533 167.275 36.18C166.742 36.4067 166.188 36.6267 165.615 36.84C165.042 37.0667 164.482 37.2733 163.935 37.46L163.255 35.64C164.255 35.3733 165.235 35.0533 166.195 34.68C167.155 34.2933 168.015 33.9067 168.775 33.52H162.795V32.04H165.595V23.02H170.715V22.02H163.615V20.42H170.715V18.92L172.695 19V20.42H179.775V22.02H172.695V23.02H177.795V32.04H180.575V33.52ZM167.495 24.44V25.38H175.915V24.44H167.495ZM175.915 26.68H167.495V27.6H175.915V26.68ZM167.495 28.88V29.82H175.915V28.88H167.495ZM167.495 32.04H175.915V31.08H167.495V32.04ZM195.203 26.6C195.856 27.2667 196.616 27.8667 197.483 28.4C198.363 28.92 199.389 29.3867 200.563 29.8L199.743 31.74C198.289 31.1 196.996 30.3733 195.863 29.56C194.729 28.7333 193.756 27.7467 192.943 26.6H189.803C189.363 27.2 188.869 27.7533 188.323 28.26C187.776 28.7533 187.149 29.2333 186.443 29.7C187.616 29.4333 188.776 29.1067 189.923 28.72C191.083 28.3333 192.109 27.9133 193.003 27.46L193.663 29.02C192.623 29.5133 191.509 29.96 190.323 30.36C189.136 30.76 187.903 31.1133 186.623 31.42L186.103 29.92C185.676 30.1867 185.216 30.46 184.723 30.74C184.243 31.0067 183.716 31.2867 183.143 31.58L182.183 29.94C183.316 29.46 184.296 28.9533 185.123 28.42C185.949 27.8867 186.683 27.28 187.323 26.6H183.003V24.92H188.603C188.856 24.52 189.096 24.0667 189.323 23.56C188.376 23.5867 187.503 23.6133 186.702 23.64C185.903 23.6667 185.269 23.6933 184.803 23.72L184.403 22.08C184.643 22.0533 184.863 22 185.063 21.92C185.276 21.8267 185.476 21.7267 185.663 21.62C185.849 21.5133 186.116 21.34 186.463 21.1C186.809 20.86 187.189 20.5867 187.603 20.28C188.016 19.9733 188.429 19.6533 188.843 19.32C189.269 18.9733 189.649 18.6533 189.983 18.36L191.343 19.6C190.729 20.12 190.109 20.5933 189.483 21.02C188.856 21.4467 188.289 21.7933 187.783 22.06L194.683 21.92C194.376 21.68 194.076 21.46 193.783 21.26C193.489 21.0467 193.223 20.8533 192.983 20.68L194.043 19.3C194.376 19.54 194.756 19.82 195.183 20.14C195.623 20.46 196.069 20.7933 196.523 21.14C196.976 21.4733 197.416 21.8067 197.843 22.14C198.269 22.4733 198.643 22.7733 198.963 23.04L198.083 24.56C197.883 24.3867 197.656 24.2067 197.403 24.02C197.163 23.82 196.903 23.6133 196.623 23.4C196.329 23.4 195.936 23.4067 195.443 23.42C194.963 23.4333 194.416 23.4467 193.803 23.46C193.203 23.46 192.556 23.4733 191.863 23.5C191.183 23.5133 190.503 23.5267 189.823 23.54L191.403 23.9C191.309 24.0867 191.223 24.2667 191.143 24.44C191.063 24.6 190.976 24.76 190.883 24.92H199.783V26.6H195.203ZM195.843 30.92C194.469 31.6533 192.943 32.3067 191.263 32.88C189.583 33.44 187.643 33.9333 185.443 34.36L184.863 32.7C186.996 32.34 188.896 31.86 190.563 31.26C192.229 30.66 193.736 30 195.083 29.28L195.843 30.92ZM183.803 35.62C185.483 35.38 186.976 35.12 188.283 34.84C189.589 34.56 190.776 34.2533 191.842 33.92C192.923 33.5867 193.909 33.2267 194.803 32.84C195.696 32.44 196.569 32 197.423 31.52L198.303 33.12C197.409 33.6133 196.469 34.0733 195.483 34.5C194.496 34.9133 193.436 35.2933 192.303 35.64C191.169 35.9867 189.949 36.3067 188.643 36.6C187.349 36.8933 185.943 37.16 184.423 37.4L183.803 35.62ZM216.27 31.78C216.763 32.46 217.323 33.1133 217.95 33.74C218.577 34.3533 219.29 34.98 220.09 35.62L218.89 37.3C217.357 36.0067 216.11 34.7133 215.15 33.42C214.643 34.06 214.057 34.6867 213.39 35.3C212.723 35.9267 211.963 36.5733 211.11 37.24L210.13 35.88L209.95 36.24C209.603 36.0533 209.243 35.8533 208.87 35.64C208.497 35.44 208.11 35.2333 207.71 35.02C207.11 35.42 206.403 35.8067 205.59 36.18C204.777 36.5533 203.823 36.92 202.73 37.28L201.93 35.54C202.77 35.2867 203.51 35.04 204.15 34.8C204.79 34.56 205.363 34.32 205.87 34.08C205.403 33.84 204.943 33.6067 204.49 33.38C204.037 33.1533 203.597 32.94 203.17 32.74C203.33 32.4733 203.483 32.2067 203.63 31.94C203.777 31.66 203.923 31.38 204.07 31.1H202.43V29.48H204.87C204.977 29.2133 205.077 28.9667 205.17 28.74C205.277 28.5 205.363 28.2733 205.43 28.06L207.23 28.56L206.87 29.48H211.07V31.02C210.843 31.5267 210.583 32.0133 210.29 32.48C210.01 32.9333 209.663 33.3667 209.25 33.78C209.49 33.9133 209.743 34.0467 210.01 34.18C210.277 34.3 210.543 34.4333 210.81 34.58L210.51 35.14C211.27 34.5933 211.937 34.04 212.51 33.48C213.083 32.92 213.59 32.3267 214.03 31.7C213.243 30.2867 212.683 28.7667 212.35 27.14C212.31 27.22 212.263 27.3 212.21 27.38C212.17 27.46 212.13 27.5333 212.09 27.6L210.69 26.24C211.01 25.7467 211.317 25.1933 211.61 24.58C211.903 23.9667 212.177 23.3333 212.43 22.68C212.683 22.0267 212.903 21.38 213.09 20.74C213.277 20.0867 213.43 19.4733 213.55 18.9L215.39 19.24C215.19 20.12 214.937 21.0467 214.63 22.02H219.67V24H218.37C218.21 25.6667 217.97 27.12 217.65 28.36C217.33 29.6 216.87 30.74 216.27 31.78ZM202.03 27.46C202.75 27.0733 203.43 26.6533 204.07 26.2C204.723 25.7333 205.303 25.2467 205.81 24.74H202.51V23.08H206.37V19.06L208.13 19.14V23.08H211.53V24.74H208.13V25.68L208.73 24.92C208.903 25.04 209.103 25.1867 209.33 25.36C209.57 25.5333 209.817 25.7267 210.07 25.94C210.323 26.14 210.57 26.3533 210.81 26.58C211.063 26.7933 211.297 27 211.51 27.2L210.49 28.56C210.33 28.3867 210.143 28.2067 209.93 28.02C209.73 27.8333 209.523 27.6467 209.31 27.46C209.11 27.2733 208.903 27.1 208.69 26.94C208.49 26.7667 208.303 26.6133 208.13 26.48V28.18H206.37V26.3C205.397 27.3267 204.21 28.2533 202.81 29.08L202.03 27.46ZM204.61 22.86C204.517 22.6867 204.403 22.4867 204.27 22.26C204.137 22.02 203.99 21.78 203.83 21.54C203.683 21.3 203.53 21.0733 203.37 20.86C203.21 20.6333 203.063 20.4333 202.93 20.26L204.13 19.38C204.25 19.5267 204.383 19.7 204.53 19.9C204.69 20.1 204.85 20.32 205.01 20.56C205.183 20.7867 205.343 21.02 205.49 21.26C205.65 21.5 205.79 21.7267 205.91 21.94L204.61 22.86ZM211.67 20.3C211.55 20.5133 211.41 20.7467 211.25 21C211.09 21.24 210.923 21.48 210.75 21.72C210.577 21.96 210.41 22.1933 210.25 22.42C210.09 22.6333 209.943 22.82 209.81 22.98L208.51 22.06C208.63 21.9133 208.77 21.7333 208.93 21.52C209.103 21.3067 209.27 21.08 209.43 20.84C209.603 20.6 209.763 20.3533 209.91 20.1C210.07 19.8467 210.21 19.6133 210.33 19.4L211.67 20.3ZM213.65 24.56C213.77 25.6 213.95 26.5533 214.19 27.42C214.43 28.2867 214.737 29.1 215.11 29.86C215.497 29.0467 215.803 28.1667 216.03 27.22C216.257 26.26 216.437 25.1867 216.57 24H213.89L213.65 24.56ZM205.65 32.1C205.943 32.2333 206.25 32.3733 206.57 32.52C206.903 32.6667 207.25 32.8267 207.61 33C207.957 32.72 208.243 32.4267 208.47 32.12C208.71 31.8133 208.917 31.4733 209.09 31.1H206.15L205.65 32.1Z" fill="white" fill-opacity="0.75"/>
<path d="M299 55.9995L295 55.9995L295 2.52167e-05L307 2.62658e-05L312 4.50003L312 42.9995L299 55.9995Z" fill="url(#paint4_radial_923_21452)"/>
<path fill-rule="evenodd" clip-rule="evenodd" d="M299 56L295 56L295 55L298.586 55L311 42.5858L311 4.91422L306.586 1L295 0.999999L295 -1.48619e-06L307 -4.37114e-07L312 4.5L312 43L299 56Z" fill="url(#paint5_linear_923_21452)" fill-opacity="0.5"/>
<defs>
<radialGradient id="paint0_radial_923_21452" cx="0" cy="0" r="1" gradientUnits="userSpaceOnUse" gradientTransform="translate(91) rotate(89.4884) scale(56.0022 170.158)">
<stop stop-color="#054B8B"/>
<stop offset="0.277074" stop-color="#053E81"/>
<stop offset="1" stop-color="#001F4E"/>
</radialGradient>
<linearGradient id="paint1_linear_923_21452" x1="8.50001" y1="0" x2="8.50001" y2="56" gradientUnits="userSpaceOnUse">
<stop stop-color="#119CE6"/>
<stop offset="0.453125" stop-color="#004EB8"/>
<stop offset="0.776042" stop-color="#02449E"/>
<stop offset="1" stop-color="#024EB7"/>
</linearGradient>
<radialGradient id="paint2_radial_923_21452" cx="0" cy="0" r="1" gradientUnits="userSpaceOnUse" gradientTransform="translate(147.953 -1.5) rotate(88.4452) scale(57.5212 285.8)">
<stop stop-color="#054B8B"/>
<stop offset="0.277074" stop-color="#053E81"/>
<stop offset="1" stop-color="#001F4E"/>
</radialGradient>
<linearGradient id="paint3_linear_923_21452" x1="156" y1="0" x2="156" y2="56" gradientUnits="userSpaceOnUse">
<stop stop-color="#0A65A7"/>
<stop offset="1" stop-color="#013782"/>
</linearGradient>
<radialGradient id="paint4_radial_923_21452" cx="0" cy="0" r="1" gradientUnits="userSpaceOnUse" gradientTransform="translate(219 0.000495702) rotate(90.5116) scale(56.0022 138.53)">
<stop stop-color="#054B8B"/>
<stop offset="0.277074" stop-color="#053E81"/>
<stop offset="1" stop-color="#001F4E"/>
</radialGradient>
<linearGradient id="paint5_linear_923_21452" x1="307" y1="0" x2="307" y2="56" gradientUnits="userSpaceOnUse">
<stop stop-color="#119CE6"/>
<stop offset="0.453125" stop-color="#004EB8"/>
<stop offset="0.776042" stop-color="#02449E"/>
<stop offset="1" stop-color="#024EB7"/>
</linearGradient>
</defs>
</svg>
