<svg width="200" height="56" viewBox="0 0 200 56" fill="none" xmlns="http://www.w3.org/2000/svg">
<path d="M13 0H17V56H5L0 51.5V13L13 0Z" fill="url(#paint0_radial_901_38271)"/>
<path fill-rule="evenodd" clip-rule="evenodd" d="M13 0H17V1H13.4142L1 13.4142V51.0858L5.41421 55H17V56H5L0 51.5V13L13 0Z" fill="url(#paint1_linear_901_38271)" fill-opacity="0.5"/>
<mask id="path-3-inside-1_901_38271" fill="white">
<path d="M17 0H183V56H17V0Z"/>
</mask>
<path d="M17 0H183V56H17V0Z" fill="url(#paint2_radial_901_38271)"/>
<path d="M17 1H183V-1H17V1ZM183 55H17V57H183V55Z" fill="url(#paint3_linear_901_38271)" mask="url(#path-3-inside-1_901_38271)"/>
<path fill-rule="evenodd" clip-rule="evenodd" d="M57.4299 24.32C57.3699 27.08 55.4899 29.32 53.1899 29.32C50.8899 29.32 49.0199 27.08 48.9599 24.29H47.3999C47.3999 22.9899 47.8939 22.853 48.2198 22.7627C48.3802 22.7182 48.4999 22.685 48.4999 22.53C48.5202 21.6592 48.8242 20.8189 49.3656 20.1366C49.9071 19.4544 50.6565 18.9675 51.4999 18.75C51.5899 18.72 51.7299 19.09 51.8699 19.59L52.0199 19C52.0118 18.8765 52.0281 18.7526 52.0679 18.6354C52.1078 18.5183 52.1704 18.4101 52.2522 18.3172C52.3339 18.2243 52.4333 18.1485 52.5444 18.094C52.6556 18.0396 52.7764 18.0076 52.8999 18H53.4999C53.7476 18.0179 53.9781 18.1332 54.1411 18.3206C54.3042 18.5079 54.3864 18.7522 54.3699 19L54.5299 19.6C54.6699 19.11 54.7999 18.76 54.8999 18.76C55.7465 18.9784 56.4983 19.4683 57.0401 20.1546C57.5819 20.8409 57.8839 21.6858 57.8999 22.56C57.8999 22.7048 58.0117 22.7316 58.1633 22.7679C58.483 22.8445 58.9799 22.9635 58.9799 24.32H57.4299ZM50.0699 24.29C50.1299 26.46 51.4999 28.2 53.1899 28.2C54.8799 28.2 56.2599 26.46 56.3199 24.29H50.0699ZM49.9572 21.2229C49.7321 21.6225 49.6093 22.0715 49.5999 22.53C49.6018 22.7547 49.5431 22.9758 49.4299 23.17H56.9499C56.841 22.9741 56.7825 22.7541 56.7799 22.53C56.7723 22.0709 56.6515 21.6208 56.4282 21.2196C56.2049 20.8183 55.886 20.4784 55.4999 20.23C55.3699 20.75 55.2299 21.43 55.1199 22.02C55.1001 22.1798 55.0226 22.3268 54.902 22.4334C54.7813 22.5401 54.6259 22.5989 54.4649 22.5989C54.3039 22.5989 54.1484 22.5401 54.0278 22.4334C53.9072 22.3268 53.8297 22.1798 53.8099 22.02L53.2499 19.22H53.1399L52.5899 22C52.5774 22.1672 52.5027 22.3236 52.3805 22.4384C52.2583 22.5532 52.0975 22.618 51.9299 22.62C51.7694 22.6215 51.6138 22.5644 51.4923 22.4595C51.3709 22.3546 51.2918 22.209 51.2699 22.05C51.1599 21.45 51.0199 20.77 50.8899 20.24C50.5027 20.4857 50.1822 20.8234 49.9572 21.2229ZM59.77 34.47V34H60.88V35H55.5V36H46.06C45.9904 36.0041 45.9206 35.9943 45.8548 35.9714C45.7889 35.9484 45.7282 35.9127 45.6762 35.8662C45.6242 35.8198 45.5818 35.7635 45.5516 35.7007C45.5214 35.6378 45.5038 35.5696 45.5 35.5V31.7C45.5413 30.9058 45.8655 30.1526 46.4139 29.5767C46.9623 29.0008 47.6988 28.6401 48.49 28.56C48.5625 28.5449 48.6374 28.5449 48.71 28.56H50.09C50.4104 29.0928 50.8658 29.5315 51.4101 29.8317C51.9545 30.132 52.5685 30.2832 53.19 30.27C53.8115 30.2832 54.4255 30.132 54.9699 29.8317C55.5142 29.5315 55.9696 29.0928 56.29 28.56H57.68C57.7493 28.5457 57.8207 28.5457 57.89 28.56C58.5605 28.6342 59.194 28.9057 59.7102 29.34C60.2264 29.7743 60.6022 30.352 60.79 31H59.62C59.4874 30.7084 59.2939 30.4486 59.0524 30.2381C58.8109 30.0276 58.527 29.8714 58.22 29.78V31H57.11V29.63H56.87C56.4227 30.1737 55.8588 30.6098 55.22 30.9058C54.5812 31.2018 53.884 31.3502 53.18 31.34C52.4777 31.3487 51.7824 31.1996 51.1455 30.9036C50.5085 30.6076 49.9462 30.1724 49.5 29.63H49.27V34.89H57.12V34H58.23V34.89H59.35C59.4614 34.89 59.5682 34.8458 59.647 34.767C59.7257 34.6882 59.77 34.5814 59.77 34.47ZM47.04 34.89H48.16V29.78C47.7328 29.8969 47.3532 30.1452 47.0751 30.4898C46.7969 30.8344 46.6342 31.2578 46.61 31.7V34.47C46.61 34.526 46.6212 34.5815 46.6429 34.6331C46.6646 34.6847 46.6964 34.7314 46.7365 34.7706C46.7766 34.8097 46.8241 34.8404 46.8762 34.8609C46.9283 34.8815 46.984 34.8913 47.04 34.89Z" fill="white" fill-opacity="0.75"/>
<path fill-rule="evenodd" clip-rule="evenodd" d="M66.5 34V32C66.5 31.7348 66.3946 31.4804 66.2071 31.2929C66.0196 31.1054 65.7652 31 65.5 31H56.5C56.2348 31 55.9804 31.1054 55.7929 31.2929C55.6053 31.4804 55.5 31.7348 55.5 32V34H66.5ZM55.5 38V35H66.5V38C66.5 38.2652 66.3946 38.5196 66.2071 38.7071C66.0196 38.8946 65.7652 39 65.5 39H56.5C56.2348 39 55.9804 38.8946 55.7929 38.7071C55.6053 38.5196 55.5 38.2652 55.5 38ZM61.5 38H62.5V36H61.5V38ZM63.5 38H64.5V36H63.5V38Z" fill="white" fill-opacity="0.75"/>
<path d="M81.98 28.74C81.46 28.7267 81.0267 28.68 80.68 28.6C80.3333 28.52 80.0533 28.3867 79.84 28.2C79.6267 28.0133 79.4733 27.76 79.38 27.44C79.2867 27.1067 79.24 26.6867 79.24 26.18V19.66H92.7V25.06H81.22V25.76C81.22 26.0267 81.2333 26.24 81.26 26.4C81.2867 26.56 81.3467 26.6867 81.44 26.78C81.5333 26.86 81.6667 26.92 81.84 26.96C82.0133 27 82.2533 27.0267 82.56 27.04C83.92 27.1067 85.26 27.14 86.58 27.14C87.9133 27.1267 89.26 27.0933 90.62 27.04C90.9667 27.0267 91.24 27.0067 91.44 26.98C91.64 26.94 91.7933 26.8867 91.9 26.82C92.02 26.7533 92.1 26.6667 92.14 26.56C92.1933 26.44 92.2333 26.3 92.26 26.14C92.3 25.9267 92.3267 25.74 92.34 25.58C92.3667 25.4067 92.3867 25.2667 92.4 25.16L94.48 25.86C94.4533 26.0867 94.42 26.3133 94.38 26.54C94.3533 26.7533 94.3067 27 94.24 27.28C94.1733 27.5333 94.0867 27.7467 93.98 27.92C93.8867 28.0933 93.7333 28.24 93.52 28.36C93.32 28.4667 93.0533 28.5533 92.72 28.62C92.4 28.6867 91.98 28.7267 91.46 28.74C88.3133 28.86 85.1533 28.86 81.98 28.74ZM81.22 21.5V23.3H90.64V21.5H81.22ZM95.04 32.26H91.66V34.3C91.66 34.8067 91.6133 35.2067 91.52 35.5C91.44 35.8067 91.3 36.0467 91.1 36.22C90.9 36.4067 90.6267 36.54 90.28 36.62C89.9467 36.7 89.5267 36.76 89.02 36.8L87.54 36.92L87 35.1L88.4 35C88.6667 34.9867 88.88 34.96 89.04 34.92C89.2133 34.88 89.3467 34.8133 89.44 34.72C89.5333 34.6267 89.5933 34.5067 89.62 34.36C89.66 34.2133 89.68 34.02 89.68 33.78V32.26H82.4C82.8933 32.5667 83.4 32.9067 83.92 33.28C84.4533 33.6533 84.9067 33.9933 85.28 34.3L84.28 35.88C84.0267 35.68 83.7333 35.4533 83.4 35.2C83.08 34.9467 82.7467 34.7 82.4 34.46C82.0667 34.2067 81.7333 33.9667 81.4 33.74C81.08 33.5133 80.7933 33.32 80.54 33.16L81.2 32.26H77.52V30.44H89.68V29.1L91.66 29.18V30.44H95.04V32.26ZM113.667 29.1V36.92H111.627V36.26H98.4475V29.06L100.487 29.14V34.38H105.067V27.68H99.0275V20.62L101.047 20.7V25.72H105.067V18.82L107.047 18.9V25.72H111.067V20.62L113.067 20.7V27.68H107.047V34.38H111.627V29.02L113.667 29.1ZM121.535 22.42H123.515V24.28H121.535V27.26C121.868 27.1533 122.182 27.0467 122.475 26.94C122.768 26.8333 123.042 26.7333 123.295 26.64L123.415 28.54C123.162 28.6333 122.875 28.74 122.555 28.86C122.235 28.9667 121.895 29.08 121.535 29.2V34.58C121.535 35.0467 121.495 35.42 121.415 35.7C121.348 35.98 121.222 36.2 121.035 36.36C120.862 36.52 120.622 36.64 120.315 36.72C120.008 36.8 119.615 36.8667 119.135 36.92L118.275 37.02L117.655 35.12L118.495 35.04C118.722 35.0133 118.908 34.9867 119.055 34.96C119.202 34.92 119.315 34.8667 119.395 34.8C119.488 34.72 119.548 34.62 119.575 34.5C119.615 34.38 119.635 34.22 119.635 34.02V29.82C119.142 29.9667 118.675 30.1067 118.235 30.24C117.795 30.3733 117.422 30.48 117.115 30.56L116.755 28.72C117.115 28.6267 117.542 28.5067 118.035 28.36C118.542 28.2133 119.075 28.0533 119.635 27.88V24.28H117.175V22.42H119.635V18.98L121.535 19.06V22.42ZM133.735 37.06C132.935 36.6067 132.195 36.1467 131.515 35.68C130.835 35.2133 130.208 34.7133 129.635 34.18C129.182 34.6067 128.682 35.0267 128.135 35.44C127.602 35.8533 127.015 36.2667 126.375 36.68L125.855 36.06V37.04H123.935V19.7H133.275C133.262 19.9533 133.248 20.2533 133.235 20.6C133.222 20.9467 133.208 21.2933 133.195 21.64C133.195 21.9733 133.188 22.2867 133.175 22.58C133.162 22.86 133.148 23.06 133.135 23.18C133.095 23.5933 133.035 23.9333 132.955 24.2C132.875 24.4533 132.742 24.6533 132.555 24.8C132.368 24.9467 132.122 25.0533 131.815 25.12C131.508 25.1867 131.115 25.2333 130.635 25.26L128.375 25.4L127.795 23.58L129.855 23.46C130.135 23.4467 130.355 23.4267 130.515 23.4C130.688 23.3733 130.822 23.3333 130.915 23.28C131.022 23.2267 131.095 23.1533 131.135 23.06C131.175 22.9667 131.208 22.84 131.235 22.68C131.262 22.5333 131.282 22.3533 131.295 22.14C131.308 21.9267 131.308 21.7267 131.295 21.54H125.855V26.18H133.515V27.98C133.288 28.7933 132.968 29.6 132.555 30.4C132.155 31.2 131.615 32 130.935 32.8C131.495 33.2667 132.088 33.7 132.715 34.1C133.355 34.4867 134.042 34.8933 134.775 35.32L133.735 37.06ZM125.855 34.56C126.788 33.9733 127.615 33.3733 128.335 32.76C127.468 31.6533 126.768 30.3133 126.235 28.74L127.795 28.08C128.035 28.8 128.302 29.4333 128.595 29.98C128.902 30.5267 129.242 31.0267 129.615 31.48C130.082 30.9333 130.475 30.38 130.795 29.82C131.115 29.2467 131.368 28.64 131.555 28H125.855V34.56ZM154.142 25.88V27.82H136.722V25.88H144.582V23.44H140.582C140.356 23.88 140.116 24.3067 139.862 24.72C139.622 25.1333 139.376 25.5133 139.122 25.86L137.382 24.72C138.036 23.7867 138.596 22.8867 139.062 22.02C139.529 21.1533 139.922 20.24 140.242 19.28L142.082 19.94C142.002 20.18 141.909 20.4333 141.802 20.7C141.709 20.9533 141.609 21.2133 141.502 21.48H144.582V18.98L146.622 19.06V21.48H152.762V23.44H146.622V25.88H154.142ZM138.882 29.46H151.962V37H149.882V36.24H140.922V37H138.882V29.46ZM140.922 31.4V34.36H149.882V31.4H140.922Z" fill="white" fill-opacity="0.75"/>
<path d="M187 55.9995L183 55.9995L183 2.52167e-05L195 2.62658e-05L200 4.50003L200 42.9995L187 55.9995Z" fill="url(#paint4_radial_901_38271)"/>
<path fill-rule="evenodd" clip-rule="evenodd" d="M187 56L183 56L183 55L186.586 55L199 42.5858L199 4.91422L194.586 1L183 0.999999L183 -1.48619e-06L195 -4.37114e-07L200 4.5L200 43L187 56Z" fill="url(#paint5_linear_901_38271)" fill-opacity="0.5"/>
<defs>
<radialGradient id="paint0_radial_901_38271" cx="0" cy="0" r="1" gradientUnits="userSpaceOnUse" gradientTransform="translate(91) rotate(89.4884) scale(56.0022 170.158)">
<stop stop-color="#054B8B"/>
<stop offset="0.277074" stop-color="#053E81"/>
<stop offset="1" stop-color="#001F4E"/>
</radialGradient>
<linearGradient id="paint1_linear_901_38271" x1="8.50001" y1="0" x2="8.50001" y2="56" gradientUnits="userSpaceOnUse">
<stop stop-color="#119CE6"/>
<stop offset="0.453125" stop-color="#004EB8"/>
<stop offset="0.776042" stop-color="#02449E"/>
<stop offset="1" stop-color="#024EB7"/>
</linearGradient>
<radialGradient id="paint2_radial_901_38271" cx="0" cy="0" r="1" gradientUnits="userSpaceOnUse" gradientTransform="translate(95.1947 -1.5) rotate(89.0714) scale(57.5075 170.698)">
<stop stop-color="#054B8B"/>
<stop offset="0.277074" stop-color="#053E81"/>
<stop offset="1" stop-color="#001F4E"/>
</radialGradient>
<linearGradient id="paint3_linear_901_38271" x1="100" y1="0" x2="100" y2="56" gradientUnits="userSpaceOnUse">
<stop stop-color="#0A65A7"/>
<stop offset="1" stop-color="#013782"/>
</linearGradient>
<radialGradient id="paint4_radial_901_38271" cx="0" cy="0" r="1" gradientUnits="userSpaceOnUse" gradientTransform="translate(107 0.000495702) rotate(90.5116) scale(56.0022 138.53)">
<stop stop-color="#054B8B"/>
<stop offset="0.277074" stop-color="#053E81"/>
<stop offset="1" stop-color="#001F4E"/>
</radialGradient>
<linearGradient id="paint5_linear_901_38271" x1="195" y1="0" x2="195" y2="56" gradientUnits="userSpaceOnUse">
<stop stop-color="#119CE6"/>
<stop offset="0.453125" stop-color="#004EB8"/>
<stop offset="0.776042" stop-color="#02449E"/>
<stop offset="1" stop-color="#024EB7"/>
</linearGradient>
</defs>
</svg>
