<svg width="1542" height="910" viewBox="0 0 1542 910" fill="none" xmlns="http://www.w3.org/2000/svg">
<path d="M477.334 74L466.334 85.5H19.3345L12.3345 92V196.5L1.83447 207.5V265.5M2.33447 278L1.83447 334.5L11.8345 345V876L20.3345 884.5H307.834L324.834 901.5H356.334L367.834 890M350.334 895L360.834 884.5H531.334L548.334 901.5H945.834L962.834 884.5H1123.83L1134.33 895M1117.33 891.5L1127.33 901.5H1159.83L1176.83 884.5H1464.33L1471.83 876.5V175L1483.83 163.5H1532.33L1539.83 156V129.5M1539.83 118.5V92.5L1532.33 85.5H1020.83L1010.33 74.5M1135.33 77L1121.33 62.5H1008.83L955.834 10.5H529.834L477.334 62.5H365.334L350.834 77.5" stroke="#006EB7"/>
<path d="M534.334 6H599.334V5H534.334V6Z" fill="#006EB7"/>
<path d="M887.334 6H952.334V5H887.334V6Z" fill="#006EB7"/>
<path d="M0 337.771L10 346.771L10.669 346.027L0.668964 337.027L0 337.771Z" fill="#006EB7"/>
<path d="M0 344.514L10 353.514L10.669 352.771L0.668964 343.771L0 344.514Z" fill="#006EB7"/>
<path d="M10 360.257L0 351.257L0.668964 350.514L10.669 359.514L10 360.257Z" fill="#006EB7"/>
<path d="M0 358.001L10 367.001L10.669 366.257L0.668964 357.257L0 358.001Z" fill="#006EB7"/>
<path d="M10 373.744L0 364.744L0.668964 364L10.669 373L10 373.744Z" fill="#006EB7"/>
<path d="M0 371.487L10 380.487L10.669 379.744L0.668964 370.744L0 371.487Z" fill="#006EB7"/>
<path d="M10 387.231L0 378.231L0.668964 377.487L10.669 386.487L10 387.231Z" fill="#006EB7"/>
<path d="M0 384.974L10 393.974L10.669 393.23L0.668964 384.23L0 384.974Z" fill="#006EB7"/>
<path d="M1485.33 166.771L1475.33 175.771L1474.67 175.027L1484.67 166.027L1485.33 166.771Z" fill="#006EB7"/>
<path d="M1485.33 173.514L1475.33 182.514L1474.67 181.771L1484.67 172.771L1485.33 173.514Z" fill="#006EB7"/>
<path d="M1475.33 189.257L1485.33 180.257L1484.67 179.514L1474.67 188.514L1475.33 189.257Z" fill="#006EB7"/>
<path d="M1485.33 187.001L1475.33 196.001L1474.67 195.257L1484.67 186.257L1485.33 187.001Z" fill="#006EB7"/>
<path d="M1475.33 202.744L1485.33 193.744L1484.67 193L1474.67 202L1475.33 202.744Z" fill="#006EB7"/>
<path d="M1485.33 200.487L1475.33 209.487L1474.67 208.744L1484.67 199.744L1485.33 200.487Z" fill="#006EB7"/>
<path d="M1475.33 216.231L1485.33 207.231L1484.67 206.487L1474.67 215.487L1475.33 216.231Z" fill="#006EB7"/>
<path d="M1485.33 213.974L1475.33 222.974L1474.67 222.23L1484.67 213.23L1485.33 213.974Z" fill="#006EB7"/>
<path d="M514.334 9H524.334L475.334 58H465.334L514.334 9Z" fill="#00A0E9"/>
<path d="M415.334 68H421.334L409.334 80H403.334L415.334 68Z" fill="#00A0E9"/>
<path d="M431.334 68H425.334L413.334 80H419.334L431.334 68Z" fill="#00A0E9"/>
<path d="M441.334 68H435.334L423.334 80H429.334L441.334 68Z" fill="#00A0E9"/>
<path d="M451.334 68H445.334L433.334 80H439.334L451.334 68Z" fill="#00A0E9"/>
<path d="M455.334 68H465.334L453.334 80H443.334L455.334 68Z" fill="#00A0E9"/>
<path d="M973.334 9H963.334L1012.33 58H1022.33L973.334 9Z" fill="#00A0E9"/>
<path d="M1072.33 68H1066.33L1078.33 80H1084.33L1072.33 68Z" fill="#00A0E9"/>
<path d="M1056.33 68H1062.33L1074.33 80H1068.33L1056.33 68Z" fill="#00A0E9"/>
<path d="M1046.33 68H1052.33L1064.33 80H1058.33L1046.33 68Z" fill="#00A0E9"/>
<path d="M1036.33 68H1042.33L1054.33 80H1048.33L1036.33 68Z" fill="#00A0E9"/>
<path d="M1032.33 68H1022.33L1034.33 80H1044.33L1032.33 68Z" fill="#00A0E9"/>
<path d="M529.334 888L543.334 902H533.334L519.334 888H529.334Z" fill="#00A0E9"/>
<path d="M965.334 888H975.334L961.334 902H951.334L965.334 888Z" fill="#00A0E9"/>
<path d="M523.334 0H532.334L526.334 6H517.334L523.334 0Z" fill="#FF8000"/>
<path d="M480.334 79H496.334L489.334 86H473.334L480.334 79Z" fill="#FF8000"/>
<path d="M961.334 0H952.334L958.334 6H967.334L961.334 0Z" fill="#FF8000"/>
<path d="M1004.33 79H988.334L995.334 86H1011.33L1004.33 79Z" fill="#FF8000"/>
<path d="M949.334 905L944.334 910H954.334L959.334 905H949.334Z" fill="#FF8000"/>
<path d="M551.334 910L546.334 905H536.334L541.334 910H551.334Z" fill="#FF8000"/>
<path fill-rule="evenodd" clip-rule="evenodd" d="M551.334 906H679.334V905H551.334V906ZM813.334 906H941.334V905H813.334V906Z" fill="#006EB7"/>
<path d="M477.334 76C478.439 76 479.334 75.1046 479.334 74C479.334 72.8954 478.439 72 477.334 72C476.23 72 475.334 72.8954 475.334 74C475.334 75.1046 476.23 76 477.334 76Z" fill="#006EB7"/>
<path d="M350.334 80C351.439 80 352.334 79.1046 352.334 78C352.334 76.8954 351.439 76 350.334 76C349.23 76 348.334 76.8954 348.334 78C348.334 79.1046 349.23 80 350.334 80Z" fill="#006EB7"/>
<path d="M1010.33 76C1011.44 76 1012.33 75.1046 1012.33 74C1012.33 72.8954 1011.44 72 1010.33 72C1009.23 72 1008.33 72.8954 1008.33 74C1008.33 75.1046 1009.23 76 1010.33 76Z" fill="#006EB7"/>
<path d="M1136.33 80C1137.44 80 1138.33 79.1046 1138.33 78C1138.33 76.8954 1137.44 76 1136.33 76C1135.23 76 1134.33 76.8954 1134.33 78C1134.33 79.1046 1135.23 80 1136.33 80Z" fill="#006EB7"/>
<path d="M1539.83 121C1540.94 121 1541.83 120.105 1541.83 119C1541.83 117.895 1540.94 117 1539.83 117C1538.73 117 1537.83 117.895 1537.83 119C1537.83 120.105 1538.73 121 1539.83 121Z" fill="#006EB7"/>
<path d="M1539.83 132C1540.94 132 1541.83 131.105 1541.83 130C1541.83 128.895 1540.94 128 1539.83 128C1538.73 128 1537.83 128.895 1537.83 130C1537.83 131.105 1538.73 132 1539.83 132Z" fill="#006EB7"/>
<path d="M1118.33 893C1119.44 893 1120.33 892.105 1120.33 891C1120.33 889.895 1119.44 889 1118.33 889C1117.23 889 1116.33 889.895 1116.33 891C1116.33 892.105 1117.23 893 1118.33 893Z" fill="#006EB7"/>
<path d="M367.334 892C368.439 892 369.334 891.105 369.334 890C369.334 888.895 368.439 888 367.334 888C366.23 888 365.334 888.895 365.334 890C365.334 891.105 366.23 892 367.334 892Z" fill="#006EB7"/>
<path d="M349.334 898C350.439 898 351.334 897.105 351.334 896C351.334 894.895 350.439 894 349.334 894C348.23 894 347.334 894.895 347.334 896C347.334 897.105 348.23 898 349.334 898Z" fill="#006EB7"/>
<path d="M1137.33 898C1138.44 898 1139.33 897.105 1139.33 896C1139.33 894.895 1138.44 894 1137.33 894C1136.23 894 1135.33 894.895 1135.33 896C1135.33 897.105 1136.23 898 1137.33 898Z" fill="#006EB7"/>
<path d="M3.33447 266.5C3.33447 267.328 2.6629 268 1.83447 268C1.00605 268 0.334473 267.328 0.334473 266.5C0.334473 265.672 1.00605 265 1.83447 265C2.6629 265 3.33447 265.672 3.33447 266.5Z" fill="#006EB7"/>
<path d="M1.83447 279C2.6629 279 3.33447 278.328 3.33447 277.5C3.33447 276.672 2.6629 276 1.83447 276C1.00605 276 0.334473 276.672 0.334473 277.5C0.334473 278.328 1.00605 279 1.83447 279Z" fill="#006EB7"/>
<path d="M1519.13 95.5L1528.83 105.207V148.793L1525.13 152.5H1475.54L1471.83 148.793V99.207L1475.54 95.5H1519.13Z" fill="#002751" stroke="#004EA2"/>
<path fill-rule="evenodd" clip-rule="evenodd" d="M1499.8 123.693L1492.06 132.086L1493.53 133.442L1501.24 125.091L1509.36 133.029L1510.76 131.598L1502.59 123.62L1510.33 115.228L1508.86 113.872L1501.16 122.222L1493.03 114.285L1491.64 115.715L1499.8 123.693Z" fill="#00A0E9"/>
</svg>
