<svg width="312" height="56" viewBox="0 0 312 56" fill="none" xmlns="http://www.w3.org/2000/svg">
<path d="M13 0H17V56H5L0 51.5V13L13 0Z" fill="url(#paint0_radial_923_11993)"/>
<path fill-rule="evenodd" clip-rule="evenodd" d="M13 0H17V1H13.4142L1 13.4142V51.0858L5.41421 55H17V56H5L0 51.5V13L13 0Z" fill="url(#paint1_linear_923_11993)" fill-opacity="0.5"/>
<mask id="path-3-inside-1_923_11993" fill="white">
<path d="M17 0H295V56H17V0Z"/>
</mask>
<path d="M17 0H295V56H17V0Z" fill="url(#paint2_radial_923_11993)"/>
<path d="M17 1H295V-1H17V1ZM295 55H17V57H295V55Z" fill="url(#paint3_linear_923_11993)" mask="url(#path-3-inside-1_923_11993)"/>
<path fill-rule="evenodd" clip-rule="evenodd" d="M94.5 28.5C94.5 27.9477 94.9477 27.5 95.5 27.5H101.5C102.052 27.5 102.5 27.9477 102.5 28.5C102.5 29.0523 102.052 29.5 101.5 29.5H95.5C94.9477 29.5 94.5 29.0523 94.5 28.5Z" fill="#C0CCDB"/>
<path fill-rule="evenodd" clip-rule="evenodd" d="M97.7929 24.7929C98.1834 24.4024 98.8166 24.4024 99.2071 24.7929L102.207 27.7929C102.598 28.1834 102.598 28.8166 102.207 29.2071L99.2071 32.2071C98.8166 32.5976 98.1834 32.5976 97.7929 32.2071C97.4024 31.8166 97.4024 31.1834 97.7929 30.7929L100.086 28.5L97.7929 26.2071C97.4024 25.8166 97.4024 25.1834 97.7929 24.7929Z" fill="#C0CCDB"/>
<path fill-rule="evenodd" clip-rule="evenodd" d="M91 18C91.5523 18 92 18.4477 92 19V29C92 30.9817 91.1012 32.8911 89.8765 34.43C88.6485 35.9732 87.0168 37.2424 85.3849 37.923C84.8752 38.1355 84.2896 37.8946 84.077 37.3849C83.8645 36.8752 84.1054 36.2896 84.6151 36.077C85.9006 35.541 87.2689 34.495 88.3115 33.1847C89.3575 31.8702 90 30.3878 90 29V19C90 18.4477 90.4477 18 91 18Z" fill="#C0CCDB"/>
<path fill-rule="evenodd" clip-rule="evenodd" d="M82.5 20.5C82.5 19.1193 83.6193 18 85 18H100C101.381 18 102.5 19.1193 102.5 20.5V23C102.5 23.5523 102.052 24 101.5 24C100.948 24 100.5 23.5523 100.5 23V20.5C100.5 20.2238 100.276 20 100 20H85C84.7239 20 84.5 20.2239 84.5 20.5V35.5C84.5 35.7762 84.7238 36 85 36H100C100.276 36 100.5 35.7762 100.5 35.5V33.75C100.5 33.1977 100.948 32.75 101.5 32.75C102.052 32.75 102.5 33.1977 102.5 33.75V35.5C102.5 36.8807 101.381 38 100 38H85C83.6193 38 82.5 36.8807 82.5 35.5V20.5Z" fill="#C0CCDB"/>
<path d="M131.1 34.28V36.26H113.98V34.28H121.7V30.06H115.88V28.12H121.7V24.58H117.52C117.227 25.2333 116.913 25.86 116.58 26.46C116.247 27.06 115.873 27.6733 115.46 28.3L113.68 27.2C114.52 26.0267 115.213 24.8333 115.76 23.62C116.307 22.3933 116.76 21.0533 117.12 19.6L119.1 20.08C118.967 20.5467 118.833 20.9933 118.7 21.42C118.58 21.8333 118.447 22.2333 118.3 22.62H121.7V18.9L123.76 18.98V22.62H130.16V24.58H123.76V28.12H129.5V30.06H123.76V34.28H131.1ZM151.148 32.52C151.081 32.8267 151.014 33.12 150.948 33.4C150.881 33.6667 150.794 33.9667 150.688 34.3C150.528 34.82 150.361 35.24 150.188 35.56C150.028 35.8933 149.848 36.1533 149.648 36.34C149.448 36.54 149.234 36.6733 149.008 36.74C148.781 36.82 148.541 36.86 148.288 36.86C147.754 36.86 147.254 36.68 146.788 36.32C146.334 35.96 145.841 35.3533 145.308 34.5C145.228 34.3667 145.148 34.2333 145.068 34.1C145.001 33.9533 144.928 33.8067 144.848 33.66C144.408 34.14 143.928 34.6067 143.408 35.06C142.888 35.5133 142.321 35.9733 141.708 36.44L140.448 34.98C141.208 34.42 141.881 33.88 142.467 33.36C143.068 32.8267 143.608 32.2867 144.088 31.74C143.741 30.7267 143.441 29.5667 143.188 28.26C142.948 26.9533 142.754 25.4733 142.608 23.82H136.828V26.18H141.628C141.628 26.3133 141.621 26.54 141.608 26.86C141.594 27.18 141.581 27.5533 141.568 27.98C141.554 28.3933 141.534 28.8333 141.508 29.3C141.481 29.7667 141.454 30.2133 141.428 30.64C141.414 31.0667 141.394 31.4467 141.368 31.78C141.354 32.1 141.341 32.3267 141.328 32.46C141.288 32.9267 141.221 33.3133 141.128 33.62C141.048 33.9267 140.914 34.18 140.728 34.38C140.541 34.5667 140.281 34.7133 139.948 34.82C139.614 34.9133 139.174 34.9933 138.628 35.06L137.608 35.18L137.008 33.26L137.888 33.16C138.208 33.12 138.461 33.08 138.648 33.04C138.848 33 139.001 32.94 139.108 32.86C139.214 32.7667 139.288 32.6533 139.328 32.52C139.368 32.3733 139.401 32.18 139.428 31.94C139.441 31.7933 139.454 31.5333 139.468 31.16C139.494 30.7867 139.514 30.3933 139.528 29.98C139.554 29.5533 139.574 29.16 139.588 28.8C139.601 28.44 139.608 28.2 139.608 28.08H136.828C136.801 29.08 136.734 29.98 136.628 30.78C136.521 31.58 136.368 32.3333 136.168 33.04C135.968 33.7333 135.721 34.4 135.428 35.04C135.148 35.68 134.821 36.34 134.448 37.02L132.548 36.12C132.961 35.4533 133.314 34.8267 133.608 34.24C133.901 33.6533 134.141 33.0267 134.328 32.36C134.514 31.68 134.648 30.9333 134.728 30.12C134.821 29.2933 134.868 28.32 134.868 27.2V21.86H142.448C142.421 21.5533 142.394 21.24 142.368 20.92C142.341 20.6 142.314 20.3067 142.287 20.04C142.274 19.7733 142.261 19.54 142.248 19.34C142.234 19.14 142.228 19.0067 142.228 18.94L144.168 19.02L144.388 21.86H147.168C146.848 21.5133 146.508 21.16 146.148 20.8C145.788 20.4267 145.481 20.1267 145.228 19.9L146.508 18.62C146.868 18.9533 147.274 19.3467 147.728 19.8C148.181 20.24 148.568 20.6533 148.888 21.04L148.188 21.86H150.508V23.82H144.568C144.674 25.0333 144.801 26.1333 144.948 27.12C145.108 28.1067 145.288 29.02 145.488 29.86C145.968 29.1 146.388 28.3067 146.748 27.48C147.108 26.6533 147.448 25.7467 147.768 24.76L149.488 25.48C149.048 26.76 148.568 27.94 148.048 29.02C147.541 30.0867 146.921 31.1067 146.188 32.08C146.454 32.72 146.754 33.3067 147.088 33.84C147.314 34.1867 147.534 34.4267 147.748 34.56C147.961 34.68 148.161 34.74 148.348 34.74C148.521 34.74 148.661 34.6467 148.768 34.46C148.874 34.26 149.001 33.9067 149.148 33.4C149.214 33.1733 149.274 32.9333 149.328 32.68C149.394 32.4267 149.468 32.12 149.548 31.76L151.148 32.52ZM159.755 20.62H160.975V22.24H159.755V25.06H157.875V26.16H160.475V31.14H157.875V32.4H160.935V34.06H157.875V36.88H156.175V34.06H152.795V32.4H156.175V31.14H153.555V26.16H156.175V25.06H154.375V22.24H153.095V20.62H154.375V18.92L156.055 19V20.62H158.035V18.92L159.755 19V20.62ZM170.475 31.94C170.475 32.22 170.462 32.5467 170.435 32.92C170.422 33.28 170.388 33.6533 170.335 34.04C170.268 34.5333 170.182 34.9333 170.075 35.24C169.982 35.56 169.835 35.8133 169.635 36C169.448 36.2 169.195 36.34 168.875 36.42C168.568 36.5 168.175 36.5533 167.695 36.58C166.442 36.6467 165.195 36.6467 163.955 36.58C163.528 36.5667 163.162 36.5067 162.855 36.4C162.548 36.3067 162.288 36.1467 162.075 35.92C161.862 35.7067 161.702 35.42 161.595 35.06C161.502 34.7 161.455 34.2467 161.455 33.7V19.88H169.595V28.88H163.195V33.08C163.195 33.3867 163.215 33.64 163.255 33.84C163.295 34.04 163.368 34.2 163.475 34.32C163.582 34.4267 163.722 34.5067 163.895 34.56C164.082 34.6133 164.315 34.6467 164.595 34.66C165.448 34.7267 166.295 34.7267 167.135 34.66C167.428 34.6467 167.662 34.62 167.835 34.58C168.008 34.5267 168.142 34.4533 168.235 34.36C168.342 34.2533 168.415 34.12 168.455 33.96C168.508 33.7867 168.548 33.5667 168.575 33.3C168.602 32.9533 168.622 32.6133 168.635 32.28C168.662 31.9467 168.675 31.6133 168.675 31.28L170.475 31.94ZM163.195 21.78V26.94H164.635V21.78H163.195ZM167.815 21.78H166.375V26.94H167.815V21.78ZM158.035 22.24H156.055V23.5H158.035V22.24ZM156.175 29.54V27.72H155.135V29.54H156.175ZM157.875 27.72V29.54H158.915V27.72H157.875ZM186.443 32.58C186.963 33.14 187.563 33.6667 188.243 34.16C188.923 34.6533 189.709 35.1467 190.603 35.64L189.603 37.58C188.683 37.0067 187.856 36.4333 187.123 35.86C186.389 35.2867 185.729 34.68 185.143 34.04C184.543 34.6533 183.856 35.24 183.083 35.8C182.309 36.36 181.443 36.92 180.483 37.48L179.463 35.84C179.316 36.0933 179.169 36.3467 179.023 36.6C178.876 36.8533 178.709 37.1067 178.523 37.36L176.883 36.04V36.98H175.063V28.54C174.796 29.18 174.509 29.8133 174.202 30.44C173.909 31.0533 173.589 31.6333 173.243 32.18L171.723 30.94C171.976 30.54 172.243 30.08 172.523 29.56C172.816 29.04 173.103 28.4933 173.383 27.92C173.676 27.3467 173.949 26.76 174.202 26.16C174.469 25.5467 174.703 24.9467 174.903 24.36H172.903V22.48H175.063V18.9L176.883 18.98V22.48H179.103V24.36H176.883V26.24L177.403 25.72C177.576 25.8933 177.756 26.0933 177.943 26.32C178.143 26.5467 178.336 26.78 178.523 27.02C178.723 27.2467 178.909 27.48 179.083 27.72C179.269 27.9467 179.429 28.16 179.563 28.36C179.589 27.96 179.609 27.54 179.623 27.1C179.649 26.6467 179.663 26.1733 179.663 25.68V20.64C181.316 20.5333 182.923 20.3733 184.483 20.16C186.043 19.9333 187.569 19.68 189.063 19.4L189.483 21.24C188.843 21.3733 188.176 21.5 187.483 21.62C186.803 21.7267 186.123 21.8267 185.443 21.92C184.763 22.0133 184.089 22.1 183.423 22.18C182.769 22.2467 182.143 22.3067 181.543 22.36V24.52H189.183V26.38C188.876 27.6333 188.503 28.7667 188.063 29.78C187.636 30.78 187.096 31.7133 186.443 32.58ZM179.683 35.42C181.456 34.42 182.849 33.42 183.863 32.42C183.369 31.6733 182.949 30.8733 182.603 30.02C182.269 29.1533 181.989 28.1933 181.763 27.14L183.503 26.56C183.716 27.44 183.956 28.2333 184.223 28.94C184.489 29.6467 184.809 30.3067 185.183 30.92C185.689 30.2267 186.089 29.5133 186.383 28.78C186.689 28.0333 186.956 27.2333 187.183 26.38H181.543C181.529 27.3533 181.483 28.26 181.403 29.1C181.336 29.9267 181.223 30.7067 181.063 31.44C180.916 32.1733 180.729 32.8667 180.503 33.52C180.276 34.1733 180.003 34.8067 179.683 35.42ZM176.883 35.92C177.256 35.3733 177.589 34.8333 177.883 34.3C178.189 33.7533 178.449 33.1867 178.663 32.6C178.889 32 179.076 31.3667 179.223 30.7C179.369 30.02 179.483 29.2667 179.563 28.44L178.383 29.76C178.196 29.4533 177.963 29.1267 177.683 28.78C177.416 28.42 177.149 28.08 176.883 27.76V35.92ZM200.83 22.36H198.39V20.64H200.83V18.88L202.55 18.96V20.64H205.17V18.88L206.87 18.96V20.64H209.59V22.36H206.87V23.46H205.17V22.36H202.55V23.46H200.83V22.36ZM205.03 32.82C205.483 33.46 206.117 34.0067 206.93 34.46C207.743 34.9 208.817 35.26 210.15 35.54L209.61 37.34C206.89 36.6733 204.937 35.5533 203.75 33.98C203.27 34.7 202.557 35.3333 201.61 35.88C200.663 36.44 199.417 36.9333 197.87 37.36L197.15 35.62C198.603 35.2867 199.73 34.8933 200.53 34.44C201.33 33.9867 201.903 33.4467 202.25 32.82H198.01V31.24H202.71C202.723 31.1867 202.73 31.1133 202.73 31.02C202.743 30.9 202.75 30.76 202.75 30.6C202.75 30.44 202.75 30.28 202.75 30.12H198.79V28.5L197.71 29.44C197.55 29.1733 197.377 28.9067 197.19 28.64C197.003 28.36 196.81 28.0933 196.61 27.84V36.96H194.87V28.24C194.577 28.9867 194.27 29.7067 193.95 30.4C193.63 31.08 193.303 31.7 192.97 32.26L191.53 30.82C191.797 30.3933 192.07 29.92 192.35 29.4C192.643 28.88 192.923 28.3333 193.19 27.76C193.47 27.1867 193.73 26.6067 193.97 26.02C194.223 25.4333 194.443 24.8533 194.63 24.28H192.55V22.46H194.87V18.94L196.61 19.02V22.46H198.65V24.28H196.61V26.04L196.93 25.74C197.197 26.02 197.503 26.3733 197.85 26.8C198.21 27.2267 198.523 27.6333 198.79 28.02V23.62H208.53V30.12H204.59C204.59 30.28 204.583 30.44 204.57 30.6C204.57 30.7467 204.57 30.8867 204.57 31.02V31.24H209.61V32.82H205.03ZM200.45 25.18V26.24H206.93V25.18H200.45ZM200.45 28.56H206.93V27.54H200.45V28.56ZM223.778 28.02L225.258 27.9C225.711 27.86 226.024 27.78 226.198 27.66C226.384 27.54 226.478 27.26 226.478 26.82V19.3L228.338 19.38V27.32C228.338 27.7733 228.298 28.1467 228.218 28.44C228.138 28.72 228.004 28.9533 227.818 29.14C227.631 29.3133 227.371 29.4467 227.038 29.54C226.718 29.62 226.311 29.68 225.818 29.72L224.338 29.84L223.778 28.02ZM212.398 29.68C212.744 29.32 213.038 28.9933 213.278 28.7C213.518 28.4067 213.718 28.1267 213.877 27.86C214.051 27.58 214.184 27.3 214.278 27.02C214.371 26.74 214.444 26.44 214.498 26.12H212.358V24.38H214.618V23.84V21.74H212.858V19.94H222.258V21.74H220.538V24.38H222.658V26.12H220.538V29.58H218.658V26.12H216.378C216.324 26.6 216.244 27.04 216.138 27.44C216.031 27.84 215.878 28.2267 215.678 28.6C215.491 28.9733 215.251 29.3467 214.958 29.72C214.678 30.08 214.331 30.46 213.918 30.86L212.398 29.68ZM224.798 27.3H222.978V20.32L224.798 20.4V27.3ZM216.478 24.38H218.658V21.74H216.478V23.86V24.38ZM229.518 34.8V36.6H212.078V34.8H219.818V32.64H214.118V30.9H219.818V29.76L221.798 29.84V30.9H227.518V32.64H221.798V34.8H229.518Z" fill="white" fill-opacity="0.75"/>
<path d="M299 55.9995L295 55.9995L295 2.52167e-05L307 2.62658e-05L312 4.50003L312 42.9995L299 55.9995Z" fill="url(#paint4_radial_923_11993)"/>
<path fill-rule="evenodd" clip-rule="evenodd" d="M299 56L295 56L295 55L298.586 55L311 42.5858L311 4.91422L306.586 1L295 0.999999L295 -1.48619e-06L307 -4.37114e-07L312 4.5L312 43L299 56Z" fill="url(#paint5_linear_923_11993)" fill-opacity="0.5"/>
<defs>
<radialGradient id="paint0_radial_923_11993" cx="0" cy="0" r="1" gradientUnits="userSpaceOnUse" gradientTransform="translate(91) rotate(89.4884) scale(56.0022 170.158)">
<stop stop-color="#054B8B"/>
<stop offset="0.277074" stop-color="#053E81"/>
<stop offset="1" stop-color="#001F4E"/>
</radialGradient>
<linearGradient id="paint1_linear_923_11993" x1="8.50001" y1="0" x2="8.50001" y2="56" gradientUnits="userSpaceOnUse">
<stop stop-color="#119CE6"/>
<stop offset="0.453125" stop-color="#004EB8"/>
<stop offset="0.776042" stop-color="#02449E"/>
<stop offset="1" stop-color="#024EB7"/>
</linearGradient>
<radialGradient id="paint2_radial_923_11993" cx="0" cy="0" r="1" gradientUnits="userSpaceOnUse" gradientTransform="translate(147.953 -1.5) rotate(88.4452) scale(57.5212 285.8)">
<stop stop-color="#054B8B"/>
<stop offset="0.277074" stop-color="#053E81"/>
<stop offset="1" stop-color="#001F4E"/>
</radialGradient>
<linearGradient id="paint3_linear_923_11993" x1="156" y1="0" x2="156" y2="56" gradientUnits="userSpaceOnUse">
<stop stop-color="#0A65A7"/>
<stop offset="1" stop-color="#013782"/>
</linearGradient>
<radialGradient id="paint4_radial_923_11993" cx="0" cy="0" r="1" gradientUnits="userSpaceOnUse" gradientTransform="translate(219 0.000495702) rotate(90.5116) scale(56.0022 138.53)">
<stop stop-color="#054B8B"/>
<stop offset="0.277074" stop-color="#053E81"/>
<stop offset="1" stop-color="#001F4E"/>
</radialGradient>
<linearGradient id="paint5_linear_923_11993" x1="307" y1="0" x2="307" y2="56" gradientUnits="userSpaceOnUse">
<stop stop-color="#119CE6"/>
<stop offset="0.453125" stop-color="#004EB8"/>
<stop offset="0.776042" stop-color="#02449E"/>
<stop offset="1" stop-color="#024EB7"/>
</linearGradient>
</defs>
</svg>
