<svg width="192" height="58" viewBox="0 0 192 58" fill="none" xmlns="http://www.w3.org/2000/svg">
<path d="M14 1L1 14V52L6 57H179L191 45V9L183 1H14Z" fill="url(#paint0_radial_524_68397)" stroke="url(#paint1_linear_524_68397)"/>
<rect x="63" y="18" width="2" height="22" rx="1" fill="white"/>
<path d="M79.168 19L76.0068 23.9189C75.6099 24.5366 75.5843 25.318 75.9316 25.9561L76.0068 26.0811L79.168 31H64V19H79.168Z" stroke="white" stroke-width="2"/>
<path d="M109.76 24.94V35.52C109.76 35.92 109.727 36.2467 109.66 36.5C109.607 36.7667 109.5 36.98 109.34 37.14C109.193 37.3 108.987 37.42 108.72 37.5C108.467 37.5933 108.14 37.66 107.74 37.7L106.96 37.78L106.48 36.42L107.36 36.34C107.8 36.3 108.087 36.2133 108.22 36.08C108.367 35.9467 108.44 35.66 108.44 35.22V33.56H105.8V37.46H104.5V33.56H101.78C101.727 33.9867 101.653 34.3867 101.56 34.76C101.467 35.1333 101.347 35.5 101.2 35.86C101.053 36.22 100.873 36.5867 100.66 36.96C100.46 37.3333 100.227 37.7267 99.96 38.14L98.7 37.4C99.1 36.8133 99.4267 36.2733 99.68 35.78C99.9333 35.2867 100.127 34.7667 100.26 34.22C100.407 33.6733 100.5 33.0667 100.54 32.4C100.593 31.7333 100.62 30.9333 100.62 30V26.14C100.513 26.2467 100.407 26.3533 100.3 26.46C100.207 26.5667 100.107 26.6733 100 26.78L99.04 25.82C99.44 25.4333 99.8333 24.9933 100.22 24.5C100.62 24.0067 101 23.4933 101.36 22.96C101.733 22.4133 102.08 21.86 102.4 21.3C102.72 20.74 103 20.2 103.24 19.68L104.64 20.14C104.533 20.38 104.42 20.6133 104.3 20.84C104.18 21.0667 104.06 21.2933 103.94 21.52H108.46V22.72C108.193 23.1067 107.913 23.4867 107.62 23.86C107.34 24.2333 107.047 24.5933 106.74 24.94H109.76ZM94.66 36.22V29.32C94.4867 29.6267 94.3067 29.9267 94.12 30.22C93.9333 30.5133 93.7333 30.8133 93.52 31.12L92.32 30.32C93.1467 29.16 93.8533 27.96 94.44 26.72C95.04 25.4667 95.5067 24.16 95.84 22.8H93.44V21.4H99.86V22.8H97.2C97.0133 23.5733 96.8067 24.3067 96.58 25C96.3667 25.6933 96.1133 26.3667 95.82 27.02H98.96V36.22H94.66ZM103.16 22.86C102.933 23.2333 102.693 23.5933 102.44 23.94C102.2 24.2733 101.947 24.6067 101.68 24.94H104.92C105.227 24.62 105.527 24.2867 105.82 23.94C106.113 23.5933 106.4 23.2333 106.68 22.86H103.16ZM104.5 26.34H101.94V28.6H104.5V26.34ZM108.44 26.34H105.8V28.6H108.44V26.34ZM95.94 34.78H97.68V28.44H95.94V34.78ZM104.5 32.2V30H101.94V30.4C101.94 30.7333 101.933 31.0533 101.92 31.36C101.92 31.6533 101.913 31.9333 101.9 32.2H104.5ZM108.44 32.2V30H105.8V32.2H108.44ZM115.288 25.48H113.808V21.96H121.128C121.021 21.6 120.914 21.2467 120.808 20.9C120.701 20.5533 120.601 20.2667 120.508 20.04L121.928 19.7C122.034 19.98 122.154 20.3333 122.288 20.76C122.421 21.1733 122.541 21.5733 122.648 21.96H129.348V25.46H127.888V23.32H115.288V25.48ZM122.868 35.82C123.508 35.8333 124.134 35.8467 124.748 35.86C125.361 35.86 125.968 35.8533 126.568 35.84C127.181 35.8267 127.808 35.8133 128.448 35.8C129.088 35.7733 129.761 35.7467 130.468 35.72L130.048 37.2C128.768 37.2667 127.541 37.3067 126.368 37.32C125.208 37.3333 124.001 37.3267 122.748 37.3C121.374 37.2733 120.174 37.02 119.148 36.54C118.121 36.0733 117.248 35.3267 116.528 34.3C116.221 34.98 115.848 35.62 115.408 36.22C114.968 36.8333 114.448 37.46 113.848 38.1L112.528 37.12C113.141 36.5067 113.661 35.92 114.088 35.36C114.528 34.8 114.888 34.22 115.168 33.62C115.461 33.0067 115.681 32.3467 115.828 31.64C115.988 30.92 116.108 30.1067 116.188 29.2L117.768 29.3C117.701 29.9667 117.614 30.5867 117.508 31.16C117.401 31.7333 117.268 32.2733 117.108 32.78C117.601 33.5933 118.174 34.2267 118.828 34.68C119.481 35.1333 120.248 35.4533 121.128 35.64V27.52H114.327V26.18H128.848V27.52H122.628V30.76H128.508V32.14H122.628V35.82H122.868Z" fill="white"/>
<defs>
<radialGradient id="paint0_radial_524_68397" cx="0" cy="0" r="1" gradientUnits="userSpaceOnUse" gradientTransform="translate(20 0.999992) rotate(40.8792) scale(123.001 417.325)">
<stop stop-color="#24CAFF"/>
<stop offset="0.277074" stop-color="#099FCF"/>
<stop offset="1" stop-color="#0071B0"/>
</radialGradient>
<linearGradient id="paint1_linear_524_68397" x1="96" y1="1" x2="96" y2="57" gradientUnits="userSpaceOnUse">
<stop stop-color="#5EE2FF"/>
<stop offset="1" stop-color="#4FAFFF"/>
</linearGradient>
</defs>
</svg>
